<svg aria-hidden="true" style="position: absolute; width: 0; height: 0; overflow: hidden;" version="1.1" xmlns="http://www.w3.org/2000/svg" xmlns:xlink="http://www.w3.org/1999/xlink">
<defs>
<symbol id="icon-thumb-tack" viewBox="0 0 18 28">
<path d="M7.5 13.5v-7c0-0.281-0.219-0.5-0.5-0.5s-0.5 0.219-0.5 0.5v7c0 0.281 0.219 0.5 0.5 0.5s0.5-0.219 0.5-0.5zM18 19c0 0.547-0.453 1-1 1h-6.703l-0.797 7.547c-0.031 0.25-0.234 0.453-0.484 0.453h-0.016c-0.25 0-0.453-0.172-0.5-0.422l-1.188-7.578h-6.312c-0.547 0-1-0.453-1-1 0-2.562 1.937-5 4-5v-8c-1.094 0-2-0.906-2-2s0.906-2 2-2h10c1.094 0 2 0.906 2 2s-0.906 2-2 2v8c2.063 0 4 2.438 4 5z"></path>
</symbol>
<symbol id="icon-credit-card" viewBox="0 0 30 28">
<path d="M27.5 2c1.375 0 2.5 1.125 2.5 2.5v19c0 1.375-1.125 2.5-2.5 2.5h-25c-1.375 0-2.5-1.125-2.5-2.5v-19c0-1.375 1.125-2.5 2.5-2.5h25zM2.5 4c-0.266 0-0.5 0.234-0.5 0.5v3.5h26v-3.5c0-0.266-0.234-0.5-0.5-0.5h-25zM27.5 24c0.266 0 0.5-0.234 0.5-0.5v-9.5h-26v9.5c0 0.266 0.234 0.5 0.5 0.5h25zM4 22v-2h4v2h-4zM10 22v-2h6v2h-6z"></path>
</symbol>
<symbol id="icon-shopping-basket" viewBox="0 0 32 28">
<path d="M30 12c1.109 0 2 0.891 2 2s-0.891 2-2 2h-0.234l-1.797 10.344c-0.172 0.953-1 1.656-1.969 1.656h-20c-0.969 0-1.797-0.703-1.969-1.656l-1.797-10.344h-0.234c-1.109 0-2-0.891-2-2s0.891-2 2-2h28zM7.578 24.5c0.547-0.047 0.969-0.531 0.922-1.078l-0.5-6.5c-0.047-0.547-0.531-0.969-1.078-0.922s-0.969 0.531-0.922 1.078l0.5 6.5c0.047 0.516 0.484 0.922 1 0.922h0.078zM14 23.5v-6.5c0-0.547-0.453-1-1-1s-1 0.453-1 1v6.5c0 0.547 0.453 1 1 1s1-0.453 1-1zM20 23.5v-6.5c0-0.547-0.453-1-1-1s-1 0.453-1 1v6.5c0 0.547 0.453 1 1 1s1-0.453 1-1zM25.5 23.578l0.5-6.5c0.047-0.547-0.375-1.031-0.922-1.078s-1.031 0.375-1.078 0.922l-0.5 6.5c-0.047 0.547 0.375 1.031 0.922 1.078h0.078c0.516 0 0.953-0.406 1-0.922zM7.438 4.562l-1.453 6.438h-2.063l1.578-6.891c0.406-1.828 2.016-3.109 3.891-3.109h2.609c0-0.547 0.453-1 1-1h6c0.547 0 1 0.453 1 1h2.609c1.875 0 3.484 1.281 3.891 3.109l1.578 6.891h-2.063l-1.453-6.438c-0.219-0.922-1.016-1.563-1.953-1.563h-2.609c0 0.547-0.453 1-1 1h-6c-0.547 0-1-0.453-1-1h-2.609c-0.938 0-1.734 0.641-1.953 1.563z"></path>
</symbol>
<symbol id="icon-price-tag" viewBox="0 0 32 32">
<path d="M30.5 0h-12c-0.825 0-1.977 0.477-2.561 1.061l-14.879 14.879c-0.583 0.583-0.583 1.538 0 2.121l12.879 12.879c0.583 0.583 1.538 0.583 2.121 0l14.879-14.879c0.583-0.583 1.061-1.736 1.061-2.561v-12c0-0.825-0.675-1.5-1.5-1.5zM23 12c-1.657 0-3-1.343-3-3s1.343-3 3-3 3 1.343 3 3-1.343 3-3 3z"></path>
</symbol>
</defs>
</svg>
